<svg xmlns="http://www.w3.org/2000/svg" width="114" height="40" viewBox="0 0 114 40" fill="none">
<path d="M97.5969 40C87.3514 40 80.6753 32.8612 80.6753 22.2191C80.6753 11.7092 87.4175 4.83478 97.3325 4.83478C107.71 4.83478 113.924 11.5109 113.924 22.2191C113.924 23.5411 113.858 24.9292 113.725 26.2512H91.053C91.5157 29.5562 93.8292 31.2748 97.663 31.2748C100.099 31.2748 101.637 30.3773 102.329 29.2541C102.436 29.0807 102.618 28.9613 102.822 28.9613H112.693C113.044 28.9613 113.297 29.2985 113.187 29.6319C111.125 35.8691 106.088 40 97.5969 40ZM90.9869 18.3192H103.282C103.282 15.2125 101.299 13.1634 97.3325 13.1634C93.4987 13.1634 91.2513 15.1464 90.9869 18.3192Z" fill="#003932"/>
<path d="M62.7743 40C52.5288 40 45.8527 32.8612 45.8527 22.2191C45.8527 11.7092 52.5949 4.83478 62.5099 4.83478C72.8876 4.83478 79.101 11.5109 79.101 22.2191C79.101 23.5411 79.0349 24.9292 78.9027 26.2512H56.2304C56.6931 29.5562 59.0066 31.2748 62.8404 31.2748C65.276 31.2748 66.8142 30.3773 67.5065 29.2541C67.6134 29.0807 67.7956 28.9613 67.9993 28.9613H77.8704C78.2215 28.9613 78.4745 29.2985 78.3643 29.6319C76.3027 35.8691 71.2648 40 62.7743 40ZM56.1643 18.3192H68.4589C68.4589 15.2125 66.4759 13.1634 62.5099 13.1634C58.6761 13.1634 56.4287 15.1464 56.1643 18.3192Z" fill="#003932"/>
<path d="M24.5675 38.9428C24.2763 38.9428 24.0402 38.7067 24.0402 38.4156V6.41997C24.0402 6.1288 24.2763 5.89275 24.5675 5.89275H32.6616C32.9528 5.89275 33.1888 6.1288 33.1888 6.41997V8.74517C33.1888 9.43305 33.139 10.12 33.0397 10.8007L32.7129 13.0407H34.3764C35.1053 8.6341 37.9403 5.89275 41.8657 5.89275H47.2669L46.8979 11.2422C46.7047 14.0421 44.3771 16.2148 41.5704 16.2148H39.9043C36.3349 16.2148 34.6162 17.8012 34.6162 21.2384V38.4156C34.6162 38.7067 34.3802 38.9428 34.089 38.9428H24.5675Z" fill="#003932"/>
<path d="M9.12181 38.9423C2.9084 38.9423 0 36.4305 0 29.8205V0.527213C0 0.236041 0.236041 0 0.527213 0H10.0488C10.34 0 10.576 0.236041 10.576 0.527213V5.89226H21.4794C21.7706 5.89226 22.0066 6.1283 22.0066 6.41948V14.6191C22.0066 14.9102 21.7706 15.1463 21.4794 15.1463H10.576V27.1104C10.576 28.829 11.237 29.6883 13.1539 29.6883H21.4794C21.7706 29.6883 22.0066 29.9243 22.0066 30.2155V38.4151C22.0066 38.7062 21.7706 38.9423 21.4794 38.9423H9.12181Z" fill="#003932"/>
</svg>