<svg xmlns="http://www.w3.org/2000/svg" width="75" height="23" viewBox="0 0 75 23" fill="none">
<g clip-path="url(#clip0_1630_32861)">
<path d="M18.4259 4.42451C18.5538 4.27516 18.5538 4.05114 18.4259 3.89245C16.5267 1.52151 13.6323 0 10.3909 0C7.14946 0 4.25501 1.52151 2.34668 3.89245C5.86202 0.662744 12.5183 4.57386 12.5183 4.57386C13.4405 5.08726 14.3262 5.68466 15.4676 5.68466C16.9741 5.68466 17.869 4.99391 18.2433 4.62987C18.3072 4.57386 18.3712 4.49919 18.4259 4.43385V4.42451Z" fill="#6B47F5"/>
<path d="M12.518 4.57378C12.518 4.57378 5.85251 0.671999 2.3463 3.89237C2.23674 4.03239 2.21847 4.22841 2.31891 4.37776C2.35544 4.43377 3.22286 5.80593 5.3138 5.80593C6.35471 5.80593 7.1856 5.29253 7.97998 4.79781C8.75609 4.32176 9.48655 3.8737 10.3905 3.8737C11.1757 3.8737 11.8423 4.19107 12.518 4.56445V4.57378Z" fill="#A8ABD4"/>
<path d="M11.614 20.8251C11.678 21.0118 11.8606 21.1332 12.0614 21.0958C15.0289 20.6011 17.7682 18.7996 19.3843 15.9246C21.0005 13.0589 21.1648 9.73584 20.1056 6.86084C21.0826 11.5841 14.4446 15.5232 14.4446 15.5232C13.5498 16.0832 12.6002 16.5686 12.0341 17.5767C11.2853 18.9116 11.4132 20.0504 11.541 20.5638C11.5593 20.6478 11.5866 20.7411 11.614 20.8251Z" fill="#6B47F5"/>
<path d="M14.4447 15.5229C14.4447 15.5229 21.0827 11.5745 20.1057 6.8606C20.0418 6.69258 19.8866 6.58056 19.704 6.5899C19.6401 6.5899 18.0422 6.67391 16.9922 8.52212C16.4717 9.44623 16.49 10.4357 16.5082 11.3878C16.5265 12.3119 16.5448 13.18 16.0882 13.9828C15.6956 14.6828 15.093 15.1122 14.4355 15.5229H14.4447Z" fill="#A8ABD4"/>
<path d="M1.12329 6.59944C0.93154 6.5621 0.739794 6.67411 0.675879 6.8608C-0.392419 9.7358 -0.228066 13.0589 1.39721 15.9339C3.01335 18.7995 5.75258 20.6011 8.71094 21.1051C4.21861 19.6116 4.20035 11.7614 4.20035 11.7614C4.17296 10.6879 4.23687 9.60512 3.67077 8.597C2.92204 7.26218 1.88114 6.81413 1.38808 6.66478C1.3059 6.63678 1.21459 6.61811 1.12329 6.59944Z" fill="#6B47F5"/>
<path d="M4.2002 11.752C4.2002 11.752 4.22759 19.6022 8.71079 21.0957C8.88427 21.1237 9.05776 21.0397 9.13993 20.881C9.16732 20.825 9.89778 19.3595 8.85688 17.5206C8.33643 16.5965 7.48727 16.1205 6.67463 15.6537C5.88025 15.2057 5.14066 14.7856 4.68413 13.9829C4.2915 13.2828 4.22759 12.536 4.20933 11.752H4.2002Z" fill="#A8ABD4"/>
<path d="M66.1247 1.18555C65.732 1.18555 65.4033 1.50292 65.4033 1.94163C65.4033 2.34301 65.7229 2.69772 66.1247 2.69772C66.5264 2.69772 66.8734 2.34301 66.8734 1.94163C66.8734 1.51225 66.5355 1.18555 66.1247 1.18555Z" fill="black"/>
<path d="M68.1061 1.18555C67.7135 1.18555 67.3848 1.50292 67.3848 1.94163C67.3848 2.34301 67.7043 2.69772 68.1061 2.69772C68.5078 2.69772 68.8548 2.34301 68.8548 1.94163C68.8548 1.51225 68.517 1.18555 68.1061 1.18555Z" fill="black"/>
<path d="M35.0797 9.35303C34.6871 9.35303 34.3584 9.6704 34.3584 10.1091C34.3584 10.5105 34.678 10.8652 35.0797 10.8652C35.4815 10.8652 35.8193 10.5105 35.8193 10.1091C35.8193 9.68907 35.4997 9.35303 35.0797 9.35303Z" fill="black"/>
<path d="M37.07 9.35303C36.6773 9.35303 36.3486 9.6704 36.3486 10.1091C36.3486 10.5105 36.6682 10.8652 37.07 10.8652C37.4717 10.8652 37.8187 10.5105 37.8187 10.1091C37.8187 9.67973 37.4808 9.35303 37.07 9.35303Z" fill="black"/>
<path d="M74.3785 0.242676C74.1046 0.242676 73.6846 0.326686 73.6846 0.868082V8.57831H75.0085V0.373358C74.6798 0.242676 74.4424 0.242676 74.3785 0.242676Z" fill="black"/>
<path d="M39.7092 4.06052V7.43958H38.3213C37.2073 7.43958 36.7508 7.32757 36.7508 5.8994V3.5658C36.4221 3.43512 36.1847 3.43512 36.1208 3.43512C35.8469 3.43512 35.4268 3.51913 35.4268 4.06052V5.8994C35.4268 6.94486 35.2351 7.43958 34.1029 7.43958H32.9433C32.0211 7.43958 31.875 6.81417 31.875 6.1421V3.43512H30.0397C27.9396 3.43512 26.5518 4.38723 26.5518 6.11409C26.5518 7.9343 27.967 8.58771 29.1905 8.58771C30.0488 8.58771 30.7245 8.31701 31.2176 7.76628C31.665 8.5037 32.4228 8.58771 33.1076 8.58771H34.5868C35.2442 8.58771 35.8103 8.32635 36.0843 7.80362C36.3582 8.32635 36.8239 8.58771 37.4813 8.58771H41.0423V3.55646C40.7136 3.42578 40.4762 3.42578 40.4122 3.42578C40.1383 3.42578 39.7183 3.50979 39.7183 4.05119L39.7092 4.06052ZM30.5419 5.90874C30.5419 7.51426 29.2179 7.43958 29.1905 7.43958C28.0492 7.43958 27.8757 6.51547 27.8757 6.12343C27.8757 4.66726 29.4371 4.58325 30.0488 4.58325H30.5328V5.91807L30.5419 5.90874Z" fill="black"/>
<path d="M71.4751 0.868082V7.43018H67.7862V3.55639C67.4575 3.42571 67.2201 3.42571 67.1562 3.42571C66.8823 3.42571 66.4623 3.50972 66.4623 4.05112V7.43018H62.5269C60.0616 7.43018 58.8472 5.97401 58.1533 5.08724C58.8016 4.52717 59.5503 4.4805 59.9795 4.5085C60.5729 4.54584 61.1208 4.7792 61.4769 5.11524C61.2486 5.42328 60.783 5.96467 60.2442 6.39406C60.5912 6.59008 60.993 6.74876 61.4495 6.85144C62.1891 6.13269 62.7095 5.3766 62.8922 5.08724C62.7643 4.87255 62.043 3.50972 60.0525 3.3697C57.9068 3.22035 56.8202 4.80721 56.6376 5.04057C57.2767 5.87133 57.8429 6.59941 58.6464 7.25282C58.2537 7.37417 57.8337 7.44884 57.3772 7.44884H49.196V0.382692C48.8673 0.25201 48.6299 0.25201 48.566 0.25201C48.2921 0.25201 47.8721 0.33602 47.8721 0.877416V8.58764H57.3772C58.2629 8.58764 59.0846 8.36362 59.8151 7.99957C60.6277 8.39162 61.5408 8.58764 62.5269 8.58764H72.8082V0.373358C72.4794 0.242676 72.2421 0.242676 72.1781 0.242676C71.9042 0.242676 71.4842 0.326686 71.4842 0.868082H71.4751Z" fill="black"/>
<path d="M40.3668 1.18555C39.9742 1.18555 39.6455 1.50292 39.6455 1.94163C39.6455 2.34301 39.9651 2.69772 40.3668 2.69772C40.7686 2.69772 41.1156 2.34301 41.1156 1.94163C41.1156 1.51225 40.7777 1.18555 40.3668 1.18555Z" fill="black"/>
<path d="M30.9166 1.18555C30.524 1.18555 30.1953 1.50292 30.1953 1.94163C30.1953 2.34301 30.5149 2.69772 30.9166 2.69772C31.3184 2.69772 31.6654 2.34301 31.6654 1.94163C31.6654 1.51225 31.3275 1.18555 30.9166 1.18555Z" fill="black"/>
<path d="M28.9254 1.18555C28.5328 1.18555 28.2041 1.50292 28.2041 1.94163C28.2041 2.34301 28.5237 2.69772 28.9254 2.69772C29.3272 2.69772 29.6742 2.34301 29.6742 1.94163C29.6742 1.51225 29.3363 1.18555 28.9254 1.18555Z" fill="black"/>
<path d="M44.4756 3.36035C43.0421 3.36035 41.6816 4.18178 41.6816 6.058C41.6816 7.93422 43.2156 8.57829 44.6035 8.57829H45.8361V8.6903C45.8361 9.04501 45.6992 9.46506 45.3979 9.7731C44.7131 10.4825 43.3252 10.1091 43.2978 10.0998C43.0239 10.0345 42.7408 9.92245 42.4851 9.79176C42.0925 10.4078 42.403 10.8652 42.8595 11.0426C43.7087 11.3693 45.1148 11.4253 45.9092 10.9679C46.804 10.4545 47.1601 9.37172 47.1601 8.17691V6.47805C47.1601 4.63917 46.3018 3.36035 44.4756 3.36035ZM45.8361 7.43949H44.5761C44.2748 7.43949 43.0239 7.42082 43.0239 6.01133C43.0239 5.07788 43.59 4.49915 44.3935 4.49915C45.3248 4.49915 45.827 5.1899 45.827 6.58073V7.43949H45.8361Z" fill="black"/>
<path d="M31.3186 18.6224C31.1817 18.7251 30.8804 18.9584 30.2869 18.9584C30.0769 18.9584 29.7755 18.9304 29.5473 18.7437C29.2642 18.5104 29.2368 18.137 29.2368 17.9223V15.2713H31.4647C31.6108 14.982 31.62 14.7486 31.62 14.6553C31.62 14.1232 31.2913 14.0299 30.926 14.0299H29.246V12.471C28.9173 12.3403 28.6799 12.3403 28.6159 12.3403C28.342 12.3403 27.922 12.4243 27.922 12.9657V14.0205H27.2555C26.8902 14.0205 26.5615 14.1232 26.5615 14.6459C26.5615 14.7393 26.5615 14.9726 26.7167 15.262H27.9311V18.1837C27.9311 18.8091 28.1685 20.1439 29.9947 20.1439C30.2412 20.1439 30.6795 20.1252 31.1999 19.9199C31.3095 19.8732 31.5652 19.7799 31.8756 19.5372C31.8026 19.2011 31.5743 18.8371 31.3278 18.6037L31.3186 18.6224Z" fill="black"/>
<path d="M74.7813 15.2243C74.6352 14.9163 74.2791 14.2722 73.1743 14.0109C72.2247 13.7868 70.4351 13.7775 70.0881 14.4309C69.942 14.7016 69.9968 14.991 70.1246 15.159C70.2068 15.271 70.2707 15.3457 70.3164 15.383C70.3985 15.3084 70.5811 15.2243 70.8459 15.1217C71.3116 14.9443 72.0877 14.9256 72.6264 15.0283C73.3752 15.1683 73.5669 15.6351 73.6399 15.9338C72.6082 15.8218 71.2477 15.6351 70.3164 16.2325C69.4307 16.8112 69.1202 18.034 69.6407 18.9674C70.1611 19.9009 71.266 20.1062 72.3069 20.1436C73.6856 20.1996 74.973 19.9849 75.0096 19.9756V16.4005C75.0096 15.9431 74.9365 15.5511 74.7813 15.2243ZM72.5717 19.0981C72.1608 19.0981 71.7225 19.0888 71.3299 18.9394C70.992 18.8088 70.6725 18.5194 70.5994 18.1554C70.5081 17.6513 70.8733 17.2312 71.1564 17.0819C71.5307 16.8859 72.0147 16.9045 72.4164 16.9325C72.7908 16.9605 73.2838 16.9979 73.6856 17.0539V19.0421C73.4025 19.0701 72.6538 19.1075 72.5717 19.1075V19.0981Z" fill="black"/>
<path d="M38.605 15.822L40.0842 16.2514L39.4085 14.1511C39.2807 14.0858 39.0524 14.0298 38.8333 14.0298C38.4772 14.0298 38.1759 14.1978 38.1941 14.5992L38.6142 15.822H38.605Z" fill="black"/>
<path d="M60.8105 14.6645V19.9945H62.1345V14.1605C61.8058 14.0298 61.5684 14.0298 61.5045 14.0298C61.2306 14.0298 60.8105 14.1138 60.8105 14.6552V14.6645Z" fill="black"/>
<path d="M52.2092 14.6645V17.4555C52.2092 18.5102 51.7252 19.1076 50.7026 19.1076C50.383 19.1076 49.196 19.089 49.196 17.4555V14.1697C48.8673 14.0391 48.6299 14.0391 48.566 14.0391C48.2921 14.0391 47.8721 14.1231 47.8721 14.6645V17.8008C47.8721 19.5277 49.2234 20.3305 50.7026 20.3305C52.4101 20.3305 53.5331 19.313 53.5331 17.8008V14.1697C53.2044 14.0391 52.967 14.0391 52.9031 14.0391C52.6292 14.0391 52.2092 14.1231 52.2092 14.6645Z" fill="black"/>
<path d="M67.4214 14.6646V17.2036C67.4214 17.8663 67.184 18.8651 65.8966 18.8651C64.527 18.8651 64.3992 17.801 64.3992 17.3343V14.1606C64.0704 14.0299 63.833 14.0299 63.7691 14.0299C63.4952 14.0299 63.0752 14.1139 63.0752 14.6553V17.5956C63.0752 19.4999 64.5818 20.0039 65.6409 20.0039C66.2162 20.0039 67.0653 19.8172 67.4488 19.2478C67.4488 20.928 67.2297 21.8988 65.5131 21.8988C64.5544 21.8988 63.897 21.6841 63.6322 21.5628C63.2943 22.3189 63.5135 22.6456 63.9791 22.7856C64.5818 22.9723 65.8235 23.0469 66.6088 22.9163C68.2341 22.6456 68.7454 21.5068 68.7454 19.3412V14.1419C68.4167 14.0112 68.1793 14.0112 68.1154 14.0112C67.8414 14.0112 67.4214 14.0952 67.4214 14.6366V14.6646Z" fill="black"/>
<path d="M57.1772 13.8711C55.6889 13.8711 54.3467 14.6739 54.3467 16.4007V19.4997C54.3467 20.0505 54.7758 20.1252 55.0406 20.1252C55.1045 20.1252 55.3419 20.1252 55.6706 19.9945V16.7461C55.6706 15.1126 56.8576 15.0939 57.1772 15.0939C58.209 15.0939 58.6838 15.6913 58.6838 16.7461V19.4997C58.6838 20.0505 59.1129 20.1252 59.3777 20.1252C59.4416 20.1252 59.679 20.1252 60.0077 19.9945V16.4007C60.0077 14.8885 58.8755 13.8711 57.1772 13.8711Z" fill="black"/>
<path d="M47.3247 14.2162C47.133 14.1228 46.9412 14.0482 46.7312 14.0295C46.156 13.9828 46.0282 14.4029 45.9551 14.6269L44.7133 18.2113L43.4076 14.3749C43.3437 14.1788 43.2889 14.1228 43.0607 14.0855C42.7411 14.0295 42.3576 13.9828 42.1293 14.2255C42.0289 14.3282 41.9741 14.4775 41.9193 14.6176L40.7232 18.0433L40.3397 16.9885C40.2941 16.8765 40.2758 16.8111 40.0475 16.7458C39.4449 16.5778 38.4405 16.2791 37.71 16.0924C37.6827 15.7657 37.6096 15.4857 37.5 15.2336C37.3539 14.9256 36.9979 14.2815 35.893 14.0202C34.9434 13.7961 33.1538 13.7868 32.8068 14.4402C32.6607 14.7109 32.7155 15.0003 32.8434 15.1683C32.9255 15.2803 32.9894 15.355 33.0351 15.3923C33.1173 15.3176 33.2999 15.2336 33.5647 15.1309C34.0304 14.9536 34.8065 14.9349 35.3452 15.0376C36.0939 15.1776 36.2857 15.6443 36.3587 15.943C35.3269 15.831 33.9664 15.6443 33.0351 16.2417C32.1494 16.8205 31.839 18.0433 32.3594 18.9767C32.8799 19.9102 33.9847 20.1155 35.0256 20.1529C36.4044 20.2089 37.6918 19.9942 37.7283 19.9848V17.2685C38.3675 17.4179 39.1253 17.6326 39.1436 17.6512C39.244 17.7446 39.5088 18.4633 39.7188 19.0887L40.0293 20.0035C40.4858 20.0035 40.9423 20.0035 41.3989 20.0035L42.668 15.9617L43.9555 20.0035H45.3342L47.3339 14.2255L47.3247 14.2162ZM35.2904 19.1074C34.8795 19.1074 34.4412 19.0981 34.0486 18.9487C33.7108 18.818 33.3912 18.5287 33.3182 18.1646C33.2269 17.6606 33.5921 17.2405 33.8751 17.0912C34.2495 16.8952 34.7334 16.9138 35.1352 16.9418C35.5095 16.9698 36.0026 17.0072 36.4043 17.0632V19.0514C36.1213 19.0794 35.3726 19.1167 35.2904 19.1167V19.1074Z" fill="black"/>
<path d="M61.4773 11.4067C61.2581 11.4067 61.0755 11.4814 60.9294 11.6401C60.7833 11.7894 60.7012 11.9855 60.7012 12.2002C60.7012 12.4149 60.7742 12.6109 60.9294 12.7602C61.0755 12.9096 61.2673 12.9936 61.4773 12.9936C61.6873 12.9936 61.879 12.9189 62.0251 12.7602C62.1712 12.6109 62.2534 12.4149 62.2534 12.2002C62.2534 11.9855 62.1804 11.7894 62.0251 11.6401C61.879 11.4907 61.6873 11.4067 61.4773 11.4067Z" fill="black"/>
</g>
<defs>
<clipPath id="clip0_1630_32861">
<rect width="75" height="23" fill="white"/>
</clipPath>
</defs>
</svg>