<svg xmlns="http://www.w3.org/2000/svg" width="77" height="78" viewBox="0 0 77 78" fill="none">
<path d="M14.7046 51.5068H62.2969C63.2541 51.5068 64.1278 51.8507 64.8155 52.4083V8.07791C64.8155 6.591 63.6072 5.39209 62.1203 5.39209H14.8905C13.4035 5.39209 12.1953 6.591 12.1953 8.07791V52.4083C12.8737 51.8413 13.7474 51.5068 14.7046 51.5068Z" fill="#005B47"/>
<path d="M57.4266 11.0244C57.4266 10.5877 57.0641 10.2438 56.5995 10.2438C56.1347 10.2438 55.7722 10.5876 55.7722 11.0244C55.7722 11.4705 56.1253 11.8051 56.5995 11.8051C57.0735 11.8144 57.4266 11.4707 57.4266 11.0244ZM53.9043 17.5486H59.4526V15.6992C59.4526 15.1973 59.3595 14.8627 59.1364 14.5932C58.8947 14.3051 58.5138 14.1565 57.9934 14.1565H53.9043V17.5486ZM43.2167 21.3497C42.9472 21.3497 42.6871 21.3125 42.4176 21.2381L42.2595 21.2009L42.5848 20.002L42.7335 20.0392C42.9472 20.095 43.0216 20.1043 43.1703 20.1043C43.7187 20.1043 43.8951 19.9184 43.8951 18.8404V12.1862H45.1498V17.5486H52.6404V12.1769H53.8949V12.9111H57.984C58.9414 12.9111 59.564 13.1621 60.0844 13.7568C60.4747 14.2028 60.6978 14.8906 60.6978 15.7084V18.8031H45.0195V18.8682C45.0662 19.8161 44.8895 20.4946 44.4992 20.9035C44.081 21.3497 43.4954 21.3497 43.2167 21.3497ZM41.1721 20.4575C41.1721 20.0208 40.819 19.6862 40.3636 19.6862C39.9174 19.6862 39.5643 20.03 39.5643 20.4575C39.5643 20.8943 39.9082 21.2196 40.3636 21.2196C40.8282 21.2196 41.1721 20.8943 41.1721 20.4575ZM38.9045 20.4575C38.9045 20.0208 38.5513 19.6862 38.1052 19.6862C37.6592 19.6862 37.3061 20.03 37.3061 20.4575C37.3061 20.8943 37.6498 21.2196 38.1052 21.2196C38.5607 21.2196 38.9045 20.8943 38.9045 20.4575ZM31.8784 20.4296C31.8784 19.9929 31.5161 19.6582 31.0513 19.6582C30.5865 19.6582 30.2242 20.002 30.2242 20.4296C30.2242 20.8756 30.5773 21.2103 31.0513 21.2103C31.5253 21.2103 31.8784 20.885 31.8784 20.4296ZM19.862 9.97442C19.862 9.54686 19.5089 9.2124 19.0628 9.2124C18.6168 9.2124 18.2636 9.54701 18.2636 9.97442C18.2636 10.4112 18.6074 10.7458 19.0628 10.7458C19.5182 10.7458 19.862 10.4112 19.862 9.97442ZM22.1202 9.97442C22.1202 9.54686 21.767 9.2124 21.3117 9.2124C20.8657 9.2124 20.5126 9.54701 20.5126 9.97442C20.5126 10.4112 20.8564 10.7458 21.3117 10.7458C21.7765 10.7458 22.1202 10.4112 22.1202 9.97442ZM19.9456 13.4223C18.8025 13.4223 17.5757 14.2123 17.5757 15.4948C17.5757 16.9168 18.7653 17.5487 19.9456 17.5487H20.7076V13.4223H19.9456ZM20.1128 18.7939C17.3154 18.7939 16.321 17.0189 16.321 15.4947C16.321 13.543 17.966 12.1769 20.3265 12.1769H20.7076V11.6008H21.9621V17.5487H30.4285V12.1769H31.6739V17.5486H39.5643V12.1769H40.791V18.7939H20.1128Z" fill="white"/>
<path d="M60.6975 22.9839H59.4431V32.7049H60.6975V22.9839ZM20.6796 27.3427V31.4689H19.9175C18.7373 31.4689 17.5477 30.837 17.5477 29.4151C17.5477 28.1418 18.7744 27.3425 19.9175 27.3425L20.6796 27.3427ZM49.8707 27.3427V31.4689H48.0306L48.0118 31.4597C47.1941 30.9763 46.7201 30.2328 46.7201 29.3963C46.7201 28.058 47.8909 27.3425 48.9969 27.3425L49.8707 27.3427ZM32.594 30.2422C32.594 31.5341 31.5996 32.5096 30.28 32.5096C29.0345 32.5096 28.0495 31.5153 28.0495 30.2422C28.0495 28.9597 29.0253 27.9559 30.28 27.9559C31.618 27.9559 32.594 28.9225 32.594 30.2422ZM32.8355 32.7327L32.8541 32.7141H57.101V22.9839H55.8465V31.4597H51.1162V26.0973H49.3875C47.0082 26.0973 45.4748 27.3891 45.4748 29.3965C45.4748 30.1494 45.7165 30.8092 46.1905 31.3574L46.2833 31.4597H40.3355V26.0975H39.0808V31.4689H33.6256L33.6534 31.3852C33.7743 31.0321 33.8393 30.6512 33.8393 30.2608C33.8393 28.2441 32.3059 26.7107 30.28 26.7107C28.3282 26.7107 26.804 28.2721 26.804 30.2608C26.804 30.642 26.8693 31.0229 26.9807 31.3852L27.0085 31.4689H21.9342V25.521H20.6796V26.097H20.2985C17.9379 26.097 16.293 27.4631 16.293 29.4149C16.293 31.0133 17.3431 32.7141 20.2985 32.7141H27.7704L27.7892 32.7327C28.4491 33.4018 29.3318 33.7737 30.2705 33.7737C31.2463 33.7645 32.1848 33.3928 32.8355 32.7327ZM50.8 24.3406C50.8 23.913 50.4469 23.5787 49.9915 23.5787C49.5454 23.5787 49.1922 23.9132 49.1922 24.3406C49.1922 24.7773 49.5362 25.1121 49.9915 25.1121C50.4469 25.1121 50.8 24.7776 50.8 24.3406ZM48.5418 24.3406C48.5418 23.913 48.1887 23.5787 47.7425 23.5787C47.2965 23.5787 46.9434 23.9132 46.9434 24.3406C46.9434 24.7773 47.2871 25.1121 47.7425 25.1121C48.1976 25.1121 48.5418 24.7776 48.5418 24.3406ZM41.5622 34.3777C41.5622 33.941 41.209 33.6065 40.7537 33.6065C40.3077 33.6065 39.9546 33.9502 39.9546 34.3777C39.9546 34.8145 40.2983 35.1398 40.7537 35.1398C41.2182 35.1398 41.5622 34.8147 41.5622 34.3777ZM39.2945 34.3777C39.2945 33.941 38.9416 33.6065 38.4954 33.6065C38.0495 33.6065 37.6963 33.9502 37.6963 34.3777C37.6963 34.8145 38.0401 35.1398 38.4954 35.1398C38.9506 35.1398 39.2945 34.8053 39.2945 34.3777ZM19.8338 23.8852C19.8338 23.4576 19.4807 23.1233 19.0346 23.1233C18.5885 23.1233 18.2354 23.4579 18.2354 23.8852C18.2354 24.322 18.5792 24.6567 19.0346 24.6567C19.49 24.6567 19.8338 24.3316 19.8338 23.8852ZM21.2837 24.6567C20.8283 24.6567 20.4845 24.3222 20.4845 23.8854C20.4845 23.4579 20.8376 23.1233 21.2837 23.1233C21.7392 23.1233 22.0923 23.4581 22.0923 23.8854C22.0923 24.3316 21.7481 24.6567 21.2837 24.6567Z" fill="white"/>
<path d="M60.6974 36.9054H59.4429V46.6264H60.6974V36.9054ZM37.0175 41.9889H40.9672C41.4878 41.9889 41.8781 42.1376 42.1104 42.4257C42.3241 42.6952 42.4263 43.0297 42.4263 43.5317V45.381H37.0083V41.9887L37.0175 41.9889ZM51.757 44.1637C51.757 45.4556 50.7626 46.4312 49.443 46.4312C48.1977 46.4312 47.2125 45.4368 47.2125 44.1637C47.2125 42.8812 48.1885 41.8775 49.443 41.8775C50.7905 41.8775 51.757 42.8346 51.757 44.1637ZM52.0081 46.6451L52.0267 46.6262H57.101V36.9052H55.8464V45.381H52.7982L52.826 45.2973C52.9469 44.9442 53.0119 44.5631 53.0119 44.1729C53.0119 42.1562 51.4785 40.6228 49.4524 40.6228C47.5008 40.6228 45.9767 42.1842 45.9767 44.1729C45.9767 44.5539 46.0325 44.9348 46.1531 45.2973L46.1809 45.381H43.681V43.5317C43.681 42.7138 43.4673 42.0261 43.0676 41.5799C42.5472 40.9851 41.9245 40.7342 40.9672 40.7342H37.0175V40.0002H35.763V45.3718H32.7519V36.896H31.4972V46.6172H46.9432L46.9618 46.6359C47.6217 47.3049 48.5046 47.6766 49.4434 47.6766C50.4189 47.686 51.3481 47.3049 52.0081 46.6451ZM40.4096 38.8569C40.4096 38.4202 40.0472 38.0762 39.5825 38.0762C39.1177 38.0762 38.7554 38.4202 38.7554 38.8569C38.7554 39.3031 39.1085 39.6376 39.5825 39.6376C40.0564 39.647 40.4096 39.3123 40.4096 38.8569ZM28.1514 38.2437C28.1514 37.8069 27.7891 37.463 27.3243 37.463C26.8595 37.463 26.4972 37.8067 26.4972 38.2437C26.4972 38.6897 26.8503 39.0244 27.3243 39.0244C27.7983 39.0336 28.1514 38.6897 28.1514 38.2437ZM20.7072 41.2548V45.3812H19.9452C18.7649 45.3812 17.5753 44.7494 17.5753 43.3274C17.5753 42.0541 18.8021 41.2548 19.9452 41.2548H20.7072ZM28.3559 41.2548V45.3812H26.5156L26.497 45.372C25.6793 44.8888 25.2051 44.1451 25.2051 43.3086C25.2051 42.3142 26.0044 41.2548 27.4821 41.2548H28.3559ZM29.6105 46.6264V40.0094H27.8819C25.5028 40.0094 23.9694 41.3012 23.9694 43.3086C23.9694 44.0615 24.2111 44.7213 24.6849 45.2697L24.7779 45.372H21.9713V39.4239H20.7074V40.0002H20.3263C17.9658 40.0002 16.3208 41.3663 16.3208 43.3178C16.3208 44.9164 17.371 46.6172 20.3263 46.6172H29.6105V46.6264ZM19.8616 37.8067C19.8616 37.3792 19.5085 37.0449 19.0624 37.0449C18.6163 37.0449 18.2632 37.3794 18.2632 37.8067C18.2632 38.2435 18.607 38.5782 19.0624 38.5782C19.5178 38.5782 19.8616 38.2437 19.8616 37.8067ZM21.3113 38.5782C20.856 38.5782 20.5122 38.2435 20.5122 37.8067C20.5122 37.3792 20.8653 37.0449 21.3113 37.0449C21.7668 37.0449 22.1199 37.3794 22.1199 37.8067C22.1199 38.2437 21.776 38.5782 21.3113 38.5782Z" fill="white"/>
<path d="M62.1195 73.0694H14.8802C13.3933 73.0694 12.1851 71.8611 12.1851 70.3741V55.6068C12.1851 54.1199 13.3933 52.9116 14.8802 52.9116H62.1195C63.6063 52.9116 64.8145 54.1199 64.8145 55.6068V70.3741C64.8145 71.8611 63.6063 73.0694 62.1195 73.0694Z" fill="#D4A007"/>
<path d="M23.7471 66.7394L26.935 56.0054H31.3958C29.9181 60.4568 26.7397 69.992 26.7025 69.992H20.7919C20.7547 69.992 17.5764 60.4568 16.0986 56.0054H20.5595L23.7471 66.7394Z" fill="white"/>
<path d="M60.9023 56.0054H46.1069L47.2222 59.2116H51.9433V69.983H56.1905V59.2116H60.9023V56.0054Z" fill="white"/>
<path d="M45.8936 61.127L45.4382 60.1421C43.1149 61.6663 39.2673 66.2386 39.2673 66.2386L37.8545 64.6494L37.3436 66.378L37.2783 66.6289C37.8173 67.4004 39.2857 69.984 39.2857 69.984C42.6966 63.8037 45.8936 61.127 45.8936 61.127Z" fill="#005B47"/>
<path d="M38.7563 59.2488L40.2062 64.1558C41.0892 63.1798 42.26 61.944 43.3754 60.9308C42.4553 58.18 41.721 56.0054 41.7026 56.0054H35.7918C35.7548 56.0054 32.5764 65.5405 31.0986 69.992H35.5595L38.7563 59.2488Z" fill="white"/>
<path d="M41.3213 67.8827L41.9439 69.9831H46.405C45.8566 68.3475 45.0853 66.0241 44.3232 63.7378C43.4869 64.7416 42.4367 66.1169 41.3213 67.8827Z" fill="white"/>
</svg>